# xmcd
#
# Track frame offsets:
#	150
#	16576
#	32058
#	53633
#	70075
#	86426
#	102049
#	117755
#	134681
#	150578
#	167517
#	183199
#	200167
#	217349
#	236264
#	252237
#	275306
#	302864
#	315978
#
# Disc length: 4453 seconds
#
# Revision: 1
# Processed by: cddbd v1.5.2PL0 Copyright (c) Steve Scherf et al.
# Submitted via: EZCDAudioConverter 2.8.0.1
#
DISCID=f7116313
DTITLE=In‐Grid - Mama mia
DYEAR=1900
DGENRE=
TTITLE0=In‐Grid - Mama mia
TTITLE1=In‐Grid - In-Tango
TTITLE2=In‐Grid - Shock
TTITLE3=In‐Grid - Pour toujours
TTITLE4=In‐Grid - You Promised Me
TTITLE5=In‐Grid - I'm folle de toi
TTITLE6=In‐Grid - Va au diable
TTITLE7=In‐Grid - Mais la nuit... II dort
TTITLE8=In‐Grid - Esclave de toi
TTITLE9=In‐Grid - Dans ma mémoire
TTITLE10=In‐Grid - Milord
TTITLE11=In‐Grid - Les champs elysees
TTITLE12=In‐Grid - La mer
TTITLE13=In‐Grid - Non je ne regrette rien
TTITLE14=In‐Grid - Souvenir d-iti
TTITLE15=In‐Grid - In-Tango (sfaction mix. Benny Benassi remix)
TTITLE16=In‐Grid - Tu es foutu (Dj Fantomas RMX)
TTITLE17=In‐Grid - My desire (Tomy or Zox feat. In-Grid)
TTITLE18=Tu es foutu (Dj Wint feat. In-Grid Progressive Mix)
EXTD=
EXTT0=
EXTT1=
EXTT2=
EXTT3=
EXTT4=
EXTT5=
EXTT6=
EXTT7=
EXTT8=
EXTT9=
EXTT10=
EXTT11=
EXTT12=
EXTT13=
EXTT14=
EXTT15=
EXTT16=
EXTT17=
EXTT18=
PLAYORDER=
